<mxfile host="app.diagrams.net" modified="2020-07-29T06:06:03.296Z" agent="5.0 (Windows NT 10.0; Win64; x64) AppleWebKit/537.36 (KHTML, like Gecko) Chrome/84.0.4147.105 Safari/537.36" etag="JM7Bxvc0f-X5QWeX1hro" version="13.5.4" type="github">
  <diagram name="Page-1" id="8378b5f6-a2b2-b727-a746-972ab9d02e00">
    <mxGraphModel dx="1038" dy="548" grid="1" gridSize="10" guides="1" tooltips="1" connect="0" arrows="1" fold="1" page="1" pageScale="1.5" pageWidth="1169" pageHeight="827" background="#ffffff" math="0" shadow="0">
      <root>
        <mxCell id="0" />
        <mxCell id="1" parent="0" />
        <mxCell id="6PAWLXsI0sqwtG4paWdl-279" value="" style="endArrow=classic;html=1;exitX=1.013;exitY=0.55;exitDx=0;exitDy=0;exitPerimeter=0;" edge="1" parent="1" source="6PAWLXsI0sqwtG4paWdl-281">
          <mxGeometry relative="1" as="geometry">
            <mxPoint x="330" y="850" as="sourcePoint" />
            <mxPoint x="430" y="783" as="targetPoint" />
          </mxGeometry>
        </mxCell>
        <mxCell id="6PAWLXsI0sqwtG4paWdl-280" value="Label" style="edgeLabel;resizable=0;html=1;align=center;verticalAlign=middle;" connectable="0" vertex="1" parent="6PAWLXsI0sqwtG4paWdl-279">
          <mxGeometry relative="1" as="geometry" />
        </mxCell>
        <mxCell id="6PAWLXsI0sqwtG4paWdl-281" value="" style="shape=process;whiteSpace=wrap;html=1;backgroundOutline=1;" vertex="1" parent="1">
          <mxGeometry x="110" y="750" width="120" height="60" as="geometry" />
        </mxCell>
      </root>
    </mxGraphModel>
  </diagram>
</mxfile>
